<svg width="19" height="19" viewBox="0 0 19 19" fill="none" xmlns="http://www.w3.org/2000/svg">
<path d="M6.87109 11.1484C5.42969 11.2188 4.16406 11.7812 3.42578 13.6797C3.35547 13.8906 3.14453 14.0312 2.93359 14.0312C2.54688 14.0312 1.31641 13.0469 0.964844 12.8359C1 15.7188 2.30078 18.25 5.5 18.25C8.13672 18.25 10 16.7383 10 14.0312C10 13.9258 9.96484 13.8203 9.96484 13.7148L6.87109 11.1484ZM17.0664 0.25C16.5391 0.25 16.0469 0.496094 15.6602 0.847656C8.48828 7.28125 7.75 7.42188 7.75 9.32031C7.75 9.77734 7.85547 10.2344 8.03125 10.6562L10.2812 12.5195C10.5273 12.5898 10.8086 12.625 11.0547 12.625C13.2695 12.625 14.5352 11.043 18.5078 3.625C18.7539 3.13281 19 2.57031 19 2.00781C19 0.988281 18.0859 0.25 17.0664 0.25Z" fill="#ED1C24"/>
</svg>
